<svg width="384" height="280" viewBox="0 0 384 280" fill="none" xmlns="http://www.w3.org/2000/svg">
<path fill-rule="evenodd" clip-rule="evenodd" d="M245.428 251.188C225.963 251.188 207.717 245.97 192.013 236.856C180.23 243.676 167.137 248.24 153.392 250.162C125.4 254.077 96.9988 246.711 74.4371 229.686C63.2548 221.259 53.8425 210.712 46.738 198.647C39.6336 186.582 34.9763 173.235 33.0322 159.369C31.0882 145.503 31.8956 131.39 35.4082 117.836C38.9208 104.282 45.0698 91.5535 53.5038 80.3772C61.9378 69.2008 72.4915 59.7959 84.5617 52.6999C96.632 45.604 109.982 40.9561 123.85 39.0218C137.717 37.0876 151.829 37.9049 165.381 41.427C174.734 43.8581 183.694 47.545 192.02 52.3718C207.723 43.2611 225.966 38.0443 245.428 38.0443C304.287 38.0443 352 85.7574 352 144.616C352 203.475 304.287 251.188 245.428 251.188ZM174.175 65.3628L174.207 65.3348C159.408 58.6947 142.917 56.2743 126.596 58.5567C103.772 61.7486 83.1498 73.8768 69.2675 92.2732C55.3852 110.67 49.3795 133.827 52.5714 156.652C55.7633 179.476 67.8915 200.098 86.2879 213.98C104.684 227.862 127.842 233.868 150.666 230.676C173.491 227.484 194.113 215.356 207.995 196.96C221.877 178.563 227.883 155.406 224.691 132.581C223.218 122.051 219.844 111.99 214.829 102.843C205.746 86.3437 191.457 73.1128 174.175 65.3628ZM60.2808 291.922" fill="#F02E65"/>
<path d="M141.487 107.744C141.359 108.059 139.73 114.459 137.975 122.05C136.154 129.641 133.268 141.623 131.64 148.712C128.5 161.698 126.618 170.23 126.618 171.36C126.618 171.671 128.564 171.925 130.946 171.925H135.277L137.219 163.265C138.351 158.561 140.861 147.77 142.868 139.301C144.876 130.831 147.321 120.543 148.264 116.401C149.203 112.26 150.144 108.499 150.334 108.059C150.523 107.495 149.454 107.308 146.193 107.308C143.745 107.308 141.61 107.495 141.487 107.744ZM107.796 134.909L102.024 141.184L103.72 143.19C104.658 144.318 107.233 147.143 109.429 149.465L113.444 153.729H124.862L119.468 147.894C116.517 144.761 114.07 141.748 114.07 141.372C114.07 140.933 116.33 138.111 119.091 135.099C121.85 132.027 124.109 129.388 124.109 129.075C124.109 128.824 121.725 128.636 118.84 128.636H113.633L107.796 134.909ZM151.712 129.011C151.712 129.202 152.779 130.392 154.094 131.71C158.991 136.603 162.441 140.746 162.252 141.559C162.128 142 159.742 144.946 156.858 148.021L151.653 153.729H157.485L163.32 153.667L168.65 147.834C171.601 144.574 173.984 141.684 173.984 141.308C173.984 140.997 171.475 138.047 168.337 134.724L162.693 128.636H157.232C154.158 128.636 151.712 128.824 151.712 129.011Z" fill="#F02E65"/>
</svg>
