<?xml version="1.0" encoding="iso-8859-1"?>
<!-- Uploaded to: SVG Repo, www.svgrepo.com, Generator: SVG Repo Mixer Tools -->
<svg version="1.1" id="Layer_1" xmlns="http://www.w3.org/2000/svg" xmlns:xlink="http://www.w3.org/1999/xlink" 
	 viewBox="0 0 511.6 511.6" xml:space="preserve">
<path style="fill:#E6E9ED;" d="M511.6,117.242V63.941c0-11.772-9.539-21.312-21.311-21.312H85.278
	c-11.772,0-21.327,9.539-21.327,21.312v53.302L511.6,117.242L511.6,117.242z"/>
<polygon style="fill:#F5F7FA;" points="511.6,405.026 449.18,405.026 63.95,405.026 63.95,85.268 511.6,85.268 511.6,308.413 "/>
<path style="fill:#ED5564;" d="M106.588,63.941c0,5.886-4.777,10.663-10.663,10.663s-10.647-4.777-10.647-10.663
	c0-5.887,4.762-10.648,10.647-10.648S106.588,58.054,106.588,63.941z"/>
<path style="fill:#FFCE54;" d="M138.564,63.941c0,5.886-4.777,10.663-10.664,10.663c-5.886,0-10.647-4.777-10.647-10.663
	c0-5.887,4.762-10.648,10.647-10.648C133.786,53.292,138.564,58.054,138.564,63.941z"/>
<path style="fill:#A0D468;" d="M170.538,63.941c0,5.886-4.777,10.663-10.663,10.663s-10.648-4.777-10.648-10.663
	c0-5.887,4.763-10.648,10.648-10.648S170.538,58.054,170.538,63.941z"/>
<rect x="298.44" y="298.422" style="fill:#48CFAD;" width="170.54" height="106.6"/>
<rect x="106.59" y="127.892" style="fill:#5D9CEC;" width="362.39" height="149.24"/>
<g>
	<path style="fill:#434A54;" d="M394.363,191.839H181.202c-5.886,0-10.664,4.777-10.664,10.664c0,5.886,4.778,10.663,10.664,10.663
		h213.161c5.887,0,10.664-4.777,10.664-10.663C405.028,196.617,400.25,191.839,394.363,191.839z"/>
	<polygon style="fill:#434A54;" points="362.389,353.066 0,353.066 0,234.479 63.95,191.839 298.439,191.839 362.389,234.479 	"/>
</g>
<rect y="234.481" style="fill:#656D78;" width="362.39" height="127.89"/>
<path style="fill:#A0D468;" d="M319.75,287.773c0,11.771-9.539,21.326-21.312,21.326s-21.312-9.555-21.312-21.326
	c0-11.772,9.539-21.32,21.312-21.32S319.75,276.001,319.75,287.773z"/>
<g>
	<path style="fill:#434A54;" d="M82.154,269.576c-4.169-4.169-10.913-4.169-15.082,0L45.76,290.895
		c-4.169,4.153-4.169,10.897,0,15.082c2.076,2.061,4.809,3.122,7.541,3.122c2.717,0,5.449-1.062,7.525-3.122l21.327-21.327
		C86.308,280.497,86.308,273.722,82.154,269.576z"/>
	<path style="fill:#434A54;" d="M124.778,269.576c-4.153-4.169-10.913-4.169-15.066,0L88.4,290.896
		c-4.169,4.153-4.169,10.897,0,15.082c2.076,2.061,4.809,3.122,7.525,3.122c2.732,0,5.465-1.062,7.541-3.122l21.312-21.327
		C128.946,280.497,128.946,273.722,124.778,269.576z"/>
	<path style="fill:#434A54;" d="M167.416,269.576c-4.169-4.169-10.913-4.169-15.066,0l-21.327,21.319
		c-4.153,4.153-4.153,10.897,0,15.082c2.076,2.061,4.809,3.122,7.541,3.122s5.449-1.062,7.541-3.122l21.312-21.327
		C171.584,280.497,171.584,273.722,167.416,269.576z"/>
</g>
<rect y="341.072" style="fill:#656D78;" width="362.39" height="127.9"/>
<rect y="330.392" style="fill:#434A54;" width="362.39" height="21.327"/>
<path style="fill:#A0D468;" d="M319.75,415.673c0,11.772-9.539,21.327-21.312,21.327s-21.312-9.555-21.312-21.327
	c0-11.771,9.539-21.327,21.312-21.327S319.75,403.902,319.75,415.673z"/>
<g>
	<path style="fill:#434A54;" d="M82.154,397.469c-4.169-4.153-10.913-4.153-15.082,0L45.76,418.796
		c-4.169,4.152-4.169,10.897,0,15.082c2.076,2.061,4.809,3.122,7.541,3.122c2.717,0,5.449-1.062,7.525-3.122l21.327-21.327
		C86.308,408.398,86.308,401.621,82.154,397.469z"/>
	<path style="fill:#434A54;" d="M124.778,397.469c-4.153-4.153-10.913-4.153-15.066,0L88.4,418.796
		c-4.169,4.152-4.169,10.897,0,15.082c2.076,2.061,4.809,3.122,7.525,3.122c2.732,0,5.465-1.062,7.541-3.122l21.312-21.327
		C128.946,408.398,128.946,401.621,124.778,397.469z"/>
	<path style="fill:#434A54;" d="M167.416,397.469c-4.169-4.153-10.913-4.153-15.066,0l-21.327,21.327
		c-4.153,4.152-4.153,10.897,0,15.082c2.076,2.061,4.809,3.122,7.541,3.122s5.449-1.062,7.541-3.122l21.312-21.327
		C171.584,408.398,171.584,401.621,167.416,397.469z"/>
</g>
</svg>